{
  "accessors": [
    {
      "bufferView": 2,
      "componentType": 5126,
      "count": 285,
      "max": [
        95.91410064697266,
        -19.808399200439453,
        88.06060028076172
      ],
      "min": [
        -94.08589935302734,
        -30.089799880981445,
        82.67240142822266
      ],
      "type": "VEC3"
    },
    {
      "bufferView": 2,
      "byteOffset": 3420,
      "componentType": 5126,
      "count": 285,
      "max": [
        0.8984474539756775,
        0.9123729467391968,
        0.9524821639060974
      ],
      "min": [
        -1.0,
        -0.9058780670166016,
        -0.9524821639060974
      ],
      "type": "VEC3"
    },
    {
      "bufferView": 1,
      "componentType": 5126,
      "count": 285,
      "max": [
        0.9973000288009644,
        0.9958999752998352
      ],
      "min": [
        0.006300000008195639,
        0.007600000128149986
      ],
      "type": "VEC2"
    },
    {
      "bufferView": 0,
      "componentType": 5125,
      "count": 714,
      "type": "SCALAR"
    },
    {
      "bufferView": 2,
      "byteOffset": 6840,
      "componentType": 5126,
      "count": 748,
      "max": [
        178.14639282226563,
        -19.808399200439453,
        85.35169982910156
      ],
      "min": [
        -178.51499938964844,
        -22.080900192260742,
        -16.794200897216797
      ],
      "type": "VEC3"
    },
    {
      "bufferView": 2,
      "byteOffset": 15816,
      "componentType": 5126,
      "count": 748,
      "max": [
        0.8923165202140808,
        0.9665413498878479,
        1.0
      ],
      "min": [
        -0.8923165202140808,
        -1.0,
        -0.9961379170417786
      ],
      "type": "VEC3"
    },
    {
      "bufferView": 1,
      "byteOffset": 2280,
      "componentType": 5126,
      "count": 748,
      "max": [
        0.9664999842643738,
        0.9800000190734863
      ],
      "min": [
        0.019999999552965164,
        0.019999999552965164
      ],
      "type": "VEC2"
    },
    {
      "bufferView": 0,
      "byteOffset": 2856,
      "componentType": 5125,
      "count": 1458,
      "type": "SCALAR"
    }
  ],
  "asset": {
    "extras": {
      "author": "hellfa (https://sketchfab.com/hellfa)",
      "license": "CC-BY-4.0 (http://creativecommons.org/licenses/by/4.0/)",
      "source": "https://sketchfab.com/3d-models/chalkboard-84c2350e2e54442ea4b7066014759e97",
      "title": "Chalkboard"
    },
    "generator": "Sketchfab-12.64.0",
    "version": "2.0"
  },
  "bufferViews": [
    {
      "buffer": 0,
      "byteLength": 8688,
      "name": "floatBufferViews",
      "target": 34963
    },
    {
      "buffer": 0,
      "byteLength": 8264,
      "byteOffset": 8688,
      "byteStride": 8,
      "name": "floatBufferViews",
      "target": 34962
    },
    {
      "buffer": 0,
      "byteLength": 24792,
      "byteOffset": 16952,
      "byteStride": 12,
      "name": "floatBufferViews",
      "target": 34962
    }
  ],
  "buffers": [
    {
      "byteLength": 41744,
      "uri": "chalkboard.bin"
    }
  ],
  "images": [
    {
      "uri": "textures/wire_154215229_baseColor.png"
    },
    {
      "uri": "textures/wire_154215229_metallicRoughness.png"
    },
    {
      "uri": "textures/wire_184228153_baseColor.png"
    },
    {
      "uri": "textures/wire_184228153_metallicRoughness.png"
    }
  ],
  "materials": [
    {
      "doubleSided": true,
      "name": "wire_154215229",
      "pbrMetallicRoughness": {
        "baseColorTexture": {
          "index": 0
        },
        "metallicRoughnessTexture": {
          "index": 1
        }
      }
    },
    {
      "doubleSided": true,
      "name": "wire_184228153",
      "pbrMetallicRoughness": {
        "baseColorTexture": {
          "index": 2
        },
        "metallicRoughnessTexture": {
          "index": 3
        }
      }
    }
  ],
  "meshes": [
    {
      "name": "Object_0",
      "primitives": [
        {
          "attributes": {
            "NORMAL": 1,
            "POSITION": 0,
            "TEXCOORD_0": 2
          },
          "indices": 3,
          "material": 0,
          "mode": 4
        }
      ]
    },
    {
      "name": "Object_1",
      "primitives": [
        {
          "attributes": {
            "NORMAL": 5,
            "POSITION": 4,
            "TEXCOORD_0": 6
          },
          "indices": 7,
          "material": 1,
          "mode": 4
        }
      ]
    }
  ],
  "nodes": [
    {
      "children": [
        1
      ],
      "matrix": [
        1.0,
        0.0,
        0.0,
        0.0,
        0.0,
        -5.053215392444312e-16,
        1.0,
        0.0,
        0.0,
        -1.0,
        -5.053215392444312e-16,
        0.0,
        0.0,
        71.26640319824217,
        49.898200988769545,
        1.0
      ],
      "name": "Sketchfab_model"
    },
    {
      "children": [
        2,
        3
      ],
      "name": "9207d796479547a0a9990708ea664a76.obj.cleaner.materialmerger.gles"
    },
    {
      "mesh": 0,
      "name": "Object_2"
    },
    {
      "mesh": 1,
      "name": "Object_3"
    }
  ],
  "samplers": [
    {
      "magFilter": 9729,
      "minFilter": 9987,
      "wrapS": 10497,
      "wrapT": 10497
    }
  ],
  "scene": 0,
  "scenes": [
    {
      "name": "Sketchfab_Scene",
      "nodes": [
        0
      ]
    }
  ],
  "textures": [
    {
      "sampler": 0,
      "source": 0
    },
    {
      "sampler": 0,
      "source": 1
    },
    {
      "sampler": 0,
      "source": 2
    },
    {
      "sampler": 0,
      "source": 3
    }
  ]
}
