{
  "accessors": [
    {
      "bufferView": 2,
      "componentType": 5126,
      "count": 229,
      "max": [
        51.709571838378906,
        100.97627258300781,
        92.28942108154297
      ],
      "min": [
        -51.709571838378906,
        76.32951354980469,
        18.188222885131836
      ],
      "type": "VEC3"
    },
    {
      "bufferView": 2,
      "byteOffset": 2748,
      "componentType": 5126,
      "count": 229,
      "max": [
        0.9999817609786987,
        1.0,
        0.9999922513961792
      ],
      "min": [
        -0.9999817609786987,
        -0.9999998807907104,
        -0.9999555349349976
      ],
      "type": "VEC3"
    },
    {
      "bufferView": 3,
      "componentType": 5126,
      "count": 229,
      "max": [
        0.9999997019767761,
        0.9999977350234985,
        0.7073956727981567,
        1.0
      ],
      "min": [
        -1.0,
        -0.9999972581863403,
        -0.7073957324028015,
        1.0
      ],
      "type": "VEC4"
    },
    {
      "bufferView": 1,
      "componentType": 5126,
      "count": 229,
      "max": [
        0.8908489942550659,
        0.8600260019302368
      ],
      "min": [
        0.0004879999905824661,
        0.0004879999905824661
      ],
      "type": "VEC2"
    },
    {
      "bufferView": 0,
      "componentType": 5125,
      "count": 936,
      "type": "SCALAR"
    },
    {
      "bufferView": 2,
      "byteOffset": 5496,
      "componentType": 5126,
      "count": 1356,
      "max": [
        50.03236389160156,
        97.33683776855469,
        92.39422607421875
      ],
      "min": [
        -50.03236389160156,
        0.11755000054836273,
        17.313579559326172
      ],
      "type": "VEC3"
    },
    {
      "bufferView": 2,
      "byteOffset": 21768,
      "componentType": 5126,
      "count": 1356,
      "max": [
        0.9999986290931702,
        0.9999998807907104,
        0.9999945163726807
      ],
      "min": [
        -0.9999986290931702,
        -0.999904990196228,
        -0.9999944567680359
      ],
      "type": "VEC3"
    },
    {
      "bufferView": 3,
      "byteOffset": 3664,
      "componentType": 5126,
      "count": 1356,
      "max": [
        0.9999721646308899,
        0.9999998807907104,
        0.9999993443489075,
        1.0
      ],
      "min": [
        -0.9999613165855408,
        -0.9999703764915466,
        -0.9999985694885254,
        1.0
      ],
      "type": "VEC4"
    },
    {
      "bufferView": 1,
      "byteOffset": 1832,
      "componentType": 5126,
      "count": 1356,
      "max": [
        0.9958029985427856,
        0.9350050091743469
      ],
      "min": [
        0.0004879999905824661,
        0.0004879999905824661
      ],
      "type": "VEC2"
    },
    {
      "bufferView": 0,
      "byteOffset": 3744,
      "componentType": 5125,
      "count": 6084,
      "type": "SCALAR"
    },
    {
      "bufferView": 2,
      "byteOffset": 38040,
      "componentType": 5126,
      "count": 1230,
      "max": [
        32.10233688354492,
        119.47003173828125,
        37.33338165283203
      ],
      "min": [
        -32.10233688354492,
        0.05117399990558624,
        -37.14575958251953
      ],
      "type": "VEC3"
    },
    {
      "bufferView": 2,
      "byteOffset": 52800,
      "componentType": 5126,
      "count": 1230,
      "max": [
        0.9926568865776062,
        0.9848074913024902,
        0.9827262163162231
      ],
      "min": [
        -0.9926568865776062,
        -1.0,
        -1.0
      ],
      "type": "VEC3"
    },
    {
      "bufferView": 3,
      "byteOffset": 25360,
      "componentType": 5126,
      "count": 1230,
      "max": [
        0.9999999403953552,
        0.9848967790603638,
        0.9999988675117493,
        1.0
      ],
      "min": [
        -1.0,
        -1.0,
        -0.9945003390312195,
        1.0
      ],
      "type": "VEC4"
    },
    {
      "bufferView": 1,
      "byteOffset": 12680,
      "componentType": 5126,
      "count": 1230,
      "max": [
        0.9995120167732239,
        0.9161859750747681
      ],
      "min": [
        0.0004879999905824661,
        0.0004900000058114529
      ],
      "type": "VEC2"
    },
    {
      "bufferView": 0,
      "byteOffset": 28080,
      "componentType": 5125,
      "count": 5628,
      "type": "SCALAR"
    },
    {
      "bufferView": 2,
      "byteOffset": 67560,
      "componentType": 5126,
      "count": 496,
      "max": [
        32.0577392578125,
        119.76776123046875,
        31.0325927734375
      ],
      "min": [
        -32.0577392578125,
        51.16990661621094,
        -33.804561614990234
      ],
      "type": "VEC3"
    },
    {
      "bufferView": 2,
      "byteOffset": 73512,
      "componentType": 5126,
      "count": 496,
      "max": [
        0.7426848411560059,
        1.0,
        1.0
      ],
      "min": [
        -0.7426848411560059,
        -1.0,
        -0.9999998807907104
      ],
      "type": "VEC3"
    },
    {
      "bufferView": 3,
      "byteOffset": 45040,
      "componentType": 5126,
      "count": 496,
      "max": [
        1.0,
        0.9992824792861938,
        0.9997550249099731,
        1.0
      ],
      "min": [
        -1.0,
        -0.9992824792861938,
        -0.9997550249099731,
        1.0
      ],
      "type": "VEC4"
    },
    {
      "bufferView": 1,
      "byteOffset": 22520,
      "componentType": 5126,
      "count": 496,
      "max": [
        0.890828013420105,
        0.9527570009231567
      ],
      "min": [
        0.0004879999905824661,
        0.5839260220527649
      ],
      "type": "VEC2"
    },
    {
      "bufferView": 0,
      "byteOffset": 50592,
      "componentType": 5125,
      "count": 2088,
      "type": "SCALAR"
    }
  ],
  "asset": {
    "extras": {
      "author": "barism09 (https://sketchfab.com/barism09)",
      "license": "CC-BY-4.0 (http://creativecommons.org/licenses/by/4.0/)",
      "source": "https://sketchfab.com/3d-models/school-desk-a74180ee97bb4917b24cd48580663b44",
      "title": "School Desk"
    },
    "generator": "Sketchfab-12.98.0",
    "version": "2.0"
  },
  "bufferViews": [
    {
      "buffer": 0,
      "byteLength": 58944,
      "name": "floatBufferViews",
      "target": 34963
    },
    {
      "buffer": 0,
      "byteLength": 26488,
      "byteOffset": 58944,
      "byteStride": 8,
      "name": "floatBufferViews",
      "target": 34962
    },
    {
      "buffer": 0,
      "byteLength": 79464,
      "byteOffset": 85432,
      "byteStride": 12,
      "name": "floatBufferViews",
      "target": 34962
    },
    {
      "buffer": 0,
      "byteLength": 52976,
      "byteOffset": 164896,
      "byteStride": 16,
      "name": "floatBufferViews",
      "target": 34962
    }
  ],
  "buffers": [
    {
      "byteLength": 217872,
      "uri": "scene.bin"
    }
  ],
  "images": [
    {
      "uri": "textures/ChackerMat_baseColor.jpeg"
    },
    {
      "uri": "textures/ChackerMat_metallicRoughness.png"
    },
    {
      "uri": "textures/ChackerMat_normal.png"
    }
  ],
  "materials": [
    {
      "doubleSided": true,
      "name": "ChackerMat",
      "normalTexture": {
        "index": 2
      },
      "occlusionTexture": {
        "index": 1
      },
      "pbrMetallicRoughness": {
        "baseColorTexture": {
          "index": 0
        },
        "metallicRoughnessTexture": {
          "index": 1
        }
      }
    }
  ],
  "meshes": [
    {
      "name": "defaultMaterial",
      "primitives": [
        {
          "attributes": {
            "NORMAL": 1,
            "POSITION": 0,
            "TANGENT": 2,
            "TEXCOORD_0": 3
          },
          "indices": 4,
          "material": 0,
          "mode": 4
        }
      ]
    },
    {
      "name": "defaultMaterial",
      "primitives": [
        {
          "attributes": {
            "NORMAL": 6,
            "POSITION": 5,
            "TANGENT": 7,
            "TEXCOORD_0": 8
          },
          "indices": 9,
          "material": 0,
          "mode": 4
        }
      ]
    },
    {
      "name": "defaultMaterial",
      "primitives": [
        {
          "attributes": {
            "NORMAL": 11,
            "POSITION": 10,
            "TANGENT": 12,
            "TEXCOORD_0": 13
          },
          "indices": 14,
          "material": 0,
          "mode": 4
        }
      ]
    },
    {
      "name": "defaultMaterial",
      "primitives": [
        {
          "attributes": {
            "NORMAL": 16,
            "POSITION": 15,
            "TANGENT": 17,
            "TEXCOORD_0": 18
          },
          "indices": 19,
          "material": 0,
          "mode": 4
        }
      ]
    }
  ],
  "nodes": [
    {
      "children": [
        1
      ],
      "matrix": [
        -0.7302668690681458,
        -1.5169243060625327e-16,
        0.6831619739532471,
        0.0,
        0.6831619739532471,
        -1.62151818432076e-16,
        0.7302668690681458,
        0.0,
        0.0,
        1.0,
        2.220446049250313e-16,
        0.0,
        0.0,
        0.0,
        0.0,
        1.0
      ],
      "name": "Sketchfab_model"
    },
    {
      "children": [
        2,
        4,
        6,
        8
      ],
      "matrix": [
        1.0,
        0.0,
        0.0,
        0.0,
        0.0,
        -4.371139006309477e-08,
        0.999999999999999,
        0.0,
        0.0,
        -0.999999999999999,
        -4.371139006309477e-08,
        0.0,
        0.0,
        0.0,
        0.0,
        1.0
      ],
      "name": "Collada visual scene group"
    },
    {
      "children": [
        3
      ],
      "name": "DeskWood_L"
    },
    {
      "mesh": 0,
      "name": "defaultMaterial"
    },
    {
      "children": [
        5
      ],
      "name": "DeskMetal_L"
    },
    {
      "mesh": 1,
      "name": "defaultMaterial"
    },
    {
      "children": [
        7
      ],
      "name": "ChairMetal_L"
    },
    {
      "mesh": 2,
      "name": "defaultMaterial"
    },
    {
      "children": [
        9
      ],
      "name": "ChairWood_L"
    },
    {
      "mesh": 3,
      "name": "defaultMaterial"
    }
  ],
  "samplers": [
    {
      "magFilter": 9729,
      "minFilter": 9987,
      "wrapS": 10497,
      "wrapT": 10497
    }
  ],
  "scene": 0,
  "scenes": [
    {
      "name": "Sketchfab_Scene",
      "nodes": [
        0
      ]
    }
  ],
  "textures": [
    {
      "sampler": 0,
      "source": 0
    },
    {
      "sampler": 0,
      "source": 1
    },
    {
      "sampler": 0,
      "source": 2
    }
  ]
}
